/* XPM */
static char * eac_logo16_xpm[] = {
"16 16 205 2",
"  	c None",
". 	c #C2A760",
"+ 	c #A07B4D",
"@ 	c #AD8A4E",
"# 	c #A88045",
"$ 	c #8F6C37",
"% 	c #A98F4D",
"& 	c #CBB05C",
"* 	c #926837",
"= 	c #C49C51",
"- 	c #D3B263",
"; 	c #C8984C",
"> 	c #C9964A",
", 	c #A87436",
"' 	c #8D5C2B",
") 	c #78592E",
"! 	c #A48C47",
"~ 	c #A67F2F",
"{ 	c #A67B3F",
"] 	c #ECD273",
"^ 	c #C4A55A",
"/ 	c #9B8459",
"( 	c #9F8A67",
"_ 	c #8D7456",
": 	c #90714D",
"< 	c #BD9149",
"[ 	c #BB8E48",
"} 	c #885B29",
"| 	c #816431",
"1 	c #B1882C",
"2 	c #9D713A",
"3 	c #EBCD7E",
"4 	c #937754",
"5 	c #999273",
"6 	c #ABA18A",
"7 	c #8A7C68",
"8 	c #786B5F",
"9 	c #877966",
"0 	c #8A7F5D",
"a 	c #A18653",
"b 	c #D4B36A",
"c 	c #966730",
"d 	c #806B31",
"e 	c #885C28",
"f 	c #E4CC9B",
"g 	c #8E7359",
"h 	c #9C8B5D",
"i 	c #9E938A",
"j 	c #DAD8BA",
"k 	c #9C9568",
"l 	c #7F7646",
"m 	c #6C5E27",
"n 	c #5B5034",
"o 	c #6E6347",
"p 	c #9B8454",
"q 	c #DAC07E",
"r 	c #694721",
"s 	c #A58236",
"t 	c #C9A772",
"u 	c #DEC597",
"v 	c #75653E",
"w 	c #968B7E",
"x 	c #C2BFBA",
"y 	c #887D72",
"z 	c #C4BF88",
"A 	c #C3BF6C",
"B 	c #969234",
"C 	c #564D30",
"D 	c #4A4034",
"E 	c #49412A",
"F 	c #E0C18A",
"G 	c #957551",
"H 	c #8F652A",
"I 	c #F2D898",
"J 	c #97866B",
"K 	c #726148",
"L 	c #A39C7A",
"M 	c #908775",
"N 	c #EBE9D4",
"O 	c #B7B3A6",
"P 	c #655E51",
"Q 	c #968F62",
"R 	c #97933E",
"S 	c #3A322D",
"T 	c #524936",
"U 	c #927E67",
"V 	c #D6BE8C",
"W 	c #6D5324",
"X 	c #9A6F2A",
"Y 	c #E4C98E",
"Z 	c #5F5246",
"` 	c #473929",
" .	c #9A9264",
"..	c #DEDCA9",
"+.	c #A69E88",
"@.	c #A2977F",
"#.	c #AFA37A",
"$.	c #A69665",
"%.	c #D5C663",
"&.	c #44400F",
"*.	c #3E362B",
"=.	c #796D53",
"-.	c #EDE2AE",
";.	c #61421C",
">.	c #A07331",
",.	c #E2C487",
"'.	c #5B503B",
").	c #423736",
"!.	c #5A5413",
"~.	c #6D6907",
"{.	c #73681B",
"].	c #4A3F06",
"^.	c #57490B",
"/.	c #5D4D0E",
"(.	c #625013",
"_.	c #332A17",
":.	c #2F271B",
"<.	c #766C49",
"[.	c #E2D49A",
"}.	c #5F401C",
"|.	c #9D6930",
"1.	c #DFBC72",
"2.	c #87754B",
"3.	c #4F420B",
"4.	c #8F812A",
"5.	c #7A7231",
"6.	c #7F6C12",
"7.	c #7B690E",
"8.	c #32300F",
"9.	c #775F13",
"0.	c #342709",
"a.	c #15100B",
"b.	c #37311C",
"c.	c #816F4A",
"d.	c #C9AA67",
"e.	c #624723",
"f.	c #B58B45",
"g.	c #B38A4D",
"h.	c #B48D59",
"i.	c #111014",
"j.	c #817108",
"k.	c #6C5F19",
"l.	c #362C09",
"m.	c #785E0C",
"n.	c #8D6505",
"o.	c #6A4D05",
"p.	c #271F0C",
"q.	c #171610",
"r.	c #14150F",
"s.	c #C79F67",
"t.	c #906E40",
"u.	c #726137",
"v.	c #7F5931",
"w.	c #A57E50",
"x.	c #593E26",
"y.	c #48462D",
"z.	c #393010",
"A.	c #61520C",
"B.	c #594D0F",
"C.	c #43330D",
"D.	c #3F3814",
"E.	c #2B2515",
"F.	c #302C19",
"G.	c #6F5334",
"H.	c #9E794B",
"I.	c #70522D",
"J.	c #BCAA6B",
"K.	c #8E6134",
"L.	c #926C46",
"M.	c #4A301D",
"N.	c #222210",
"O.	c #2F2A1C",
"P.	c #38331F",
"Q.	c #444130",
"R.	c #352F20",
"S.	c #2C271B",
"T.	c #62452D",
"U.	c #936A44",
"V.	c #795027",
"W.	c #84652B",
"X.	c #966531",
"Y.	c #704F30",
"Z.	c #7F5A36",
"`.	c #544027",
" +	c #37261C",
".+	c #412F21",
"++	c #573D2E",
"@+	c #8B6845",
"#+	c #7D5937",
"$+	c #6F4620",
"%+	c #704E1B",
"&+	c #7D551A",
"*+	c #936931",
"=+	c #8C6436",
"-+	c #84643C",
";+	c #7A5736",
">+	c #805C38",
",+	c #775432",
"'+	c #704B2D",
")+	c #62441C",
"!+	c #947137",
"~+	c #8B693F",
"{+	c #7F5A2F",
"]+	c #85602C",
"^+	c #86622C",
"          . + @ # $ %           ",
"      & * = - ; > , ' ) !       ",
"    ~ { ] ^ / ( _ : < [ } |     ",
"  1 2 3 4 5 6 7 8 9 0 a b c d   ",
"  e f g h i j k l m n o p q r   ",
"s t u v w x y z A B C D E F G   ",
"H I J K L M N O P Q R S T U V W ",
"X Y Z `  ...+.@.#.$.%.&.*.=.-.;.",
">.,.'.).!.~.{.].^./.(._.:.<.[.}.",
"|.1.2.3.4.5.6.7.8.9.0.a.b.c.d.e.",
"f.g.h.i.j.k.l.m.n.o.p.q.r.s.t.u.",
"  v.w.x.y.z.A.B.C.D.E.F.G.H.I.  ",
"  J.K.L.M.N.O.P.Q.R.S.T.U.V.    ",
"    W.X.Y.Z.`. +.+++@+#+$+%+    ",
"      &+*+=+-+;+>+,+'+)+        ",
"          !+~+{+]+^+            "};
