/* XPM */
static char * eac_logo32_xpm[] = {
"32 32 788 2",
"  	c None",
". 	c #FFFFC0",
"+ 	c #DFD185",
"@ 	c #C5AF6C",
"# 	c #BBA060",
"$ 	c #BA9758",
"% 	c #BA9A53",
"& 	c #C9B051",
"* 	c #DFC96A",
"= 	c #FFFF9B",
"- 	c #C3A95E",
"; 	c #AC864A",
"> 	c #7A451E",
", 	c #7E4A26",
"' 	c #996A37",
") 	c #A6783D",
"! 	c #A6783C",
"~ 	c #926433",
"{ 	c #895630",
"] 	c #533018",
"^ 	c #8C6C36",
"/ 	c #B19754",
"( 	c #BAA05B",
"_ 	c #60341B",
": 	c #906434",
"< 	c #B88947",
"[ 	c #C49E5B",
"} 	c #D5AC5C",
"| 	c #BB863F",
"1 	c #B57E3F",
"2 	c #B47C3D",
"3 	c #B9823F",
"4 	c #A77639",
"5 	c #94632E",
"6 	c #8C5827",
"7 	c #6A411A",
"8 	c #664A24",
"9 	c #AB904E",
"0 	c #E3CE64",
"a 	c #8E5B2E",
"b 	c #A7743D",
"c 	c #A98341",
"d 	c #D2B35D",
"e 	c #EAC96A",
"f 	c #D0BB6A",
"g 	c #CBA455",
"h 	c #D2AC5E",
"i 	c #D2A956",
"j 	c #D6A956",
"k 	c #C6994D",
"l 	c #AE7D3B",
"m 	c #AF7736",
"n 	c #A1723C",
"o 	c #A97A3B",
"p 	c #8D6532",
"q 	c #5B3A1E",
"r 	c #694C2A",
"s 	c #BAA34F",
"t 	c #BE9737",
"u 	c #7E512E",
"v 	c #A77938",
"w 	c #D6BA65",
"x 	c #EDCE6D",
"y 	c #C6AC5A",
"z 	c #DFBC63",
"A 	c #DDC062",
"B 	c #BA984E",
"C 	c #B09157",
"D 	c #A3814F",
"E 	c #926E42",
"F 	c #957040",
"G 	c #AE7C3B",
"H 	c #C59347",
"I 	c #BF9850",
"J 	c #B78440",
"K 	c #B8813C",
"L 	c #B78E46",
"M 	c #795324",
"N 	c #5C2F1E",
"O 	c #98813C",
"P 	c #B1882C",
"Q 	c #764C2B",
"R 	c #AF8542",
"S 	c #DEBF6A",
"T 	c #DDCF7A",
"U 	c #EAC265",
"V 	c #D1B365",
"W 	c #94764C",
"X 	c #604C49",
"Y 	c #8E867B",
"Z 	c #908371",
"` 	c #A19781",
" .	c #A99D7C",
"..	c #75655E",
"+.	c #766F6A",
"@.	c #615046",
"#.	c #947649",
"$.	c #CA994A",
"%.	c #B28C4E",
"&.	c #BB9049",
"*.	c #CB9D4D",
"=.	c #976C29",
"-.	c #5F2D1F",
";.	c #8C7735",
">.	c #C59B2C",
",.	c #744728",
"'.	c #A67A38",
").	c #E5C979",
"!.	c #E6C776",
"~.	c #EDCE77",
"{.	c #9B7B4F",
"].	c #665755",
"^.	c #9F9879",
"/.	c #BCB49E",
"(.	c #C9C78D",
"_.	c #82796E",
":.	c #9C8E5E",
"<.	c #6E6153",
"[.	c #9A8F70",
"}.	c #A39151",
"|.	c #7E7456",
"1.	c #776D66",
"2.	c #655951",
"3.	c #BF9F5C",
"4.	c #CCA357",
"5.	c #DAB162",
"6.	c #B6944F",
"7.	c #9E702B",
"8.	c #633121",
"9.	c #927F35",
"0.	c #774B28",
"a.	c #996B2C",
"b.	c #D9B672",
"c.	c #DFBC73",
"d.	c #D8B975",
"e.	c #6F523C",
"f.	c #776B66",
"g.	c #D8D19B",
"h.	c #877F5D",
"i.	c #918477",
"j.	c #817274",
"k.	c #8D7E74",
"l.	c #8C7F65",
"m.	c #807457",
"n.	c #70615A",
"o.	c #6C5F67",
"p.	c #8B7D74",
"q.	c #A09157",
"r.	c #A6975F",
"s.	c #595049",
"t.	c #A18C57",
"u.	c #DDBF76",
"v.	c #CFAF6A",
"w.	c #DFBA63",
"x.	c #825524",
"y.	c #654426",
"z.	c #9C732A",
"A.	c #865824",
"B.	c #DBBA7B",
"C.	c #D2B885",
"D.	c #DDBD7F",
"E.	c #6F543E",
"F.	c #8B816A",
"G.	c #8E7C53",
"H.	c #827459",
"I.	c #928480",
"J.	c #B4AC98",
"K.	c #C2BE88",
"L.	c #C4C076",
"M.	c #C3C068",
"N.	c #B5B146",
"O.	c #9D961F",
"P.	c #978906",
"Q.	c #78681D",
"R.	c #42383C",
"S.	c #5F5354",
"T.	c #8F8561",
"U.	c #60574A",
"V.	c #9D8C58",
"W.	c #DAB46C",
"X.	c #DDB76E",
"Y.	c #BA9D57",
"Z.	c #5E341B",
"`.	c #7D642D",
" +	c #E7C038",
".+	c #6F4426",
"++	c #B88F4F",
"@+	c #EFD8AA",
"#+	c #D8C296",
"$+	c #AB8A64",
"%+	c #605553",
"&+	c #CEB364",
"*+	c #6B5E53",
"=+	c #9E918A",
"-+	c #D9D7CC",
";+	c #E3E1D2",
">+	c #DEDDC8",
",+	c #8F8775",
"'+	c #605453",
")+	c #554859",
"!+	c #5E505C",
"~+	c #4C4256",
"{+	c #5E5137",
"]+	c #8C7F31",
"^+	c #53491C",
"/+	c #574B39",
"(+	c #6A5D31",
"_+	c #37332D",
":+	c #BC9E65",
"<+	c #DFD09B",
"[+	c #D7B677",
"}+	c #825C30",
"|+	c #644924",
"1+	c #A57E31",
"2+	c #875B24",
"3+	c #F4D79B",
"4+	c #EBD4A3",
"5+	c #F2D39D",
"6+	c #493C3B",
"7+	c #968653",
"8+	c #6E6059",
"9+	c #9F947F",
"0+	c #A5A094",
"a+	c #F8F7F5",
"b+	c #BFBBA8",
"c+	c #675958",
"d+	c #A59C64",
"e+	c #A8A343",
"f+	c #A9A63E",
"g+	c #A39E34",
"h+	c #888116",
"i+	c #787224",
"j+	c #41363A",
"k+	c #564A38",
"l+	c #4E4321",
"m+	c #5F5548",
"n+	c #554D3B",
"o+	c #3F3530",
"p+	c #F2CB86",
"q+	c #E8C481",
"r+	c #C0A26D",
"s+	c #542F1A",
"t+	c #8B7731",
"u+	c #906C2F",
"v+	c #A17539",
"w+	c #FEECC7",
"x+	c #E3D1A8",
"y+	c #978164",
"z+	c #817156",
"A+	c #877032",
"B+	c #877873",
"C+	c #C8C39B",
"D+	c #91887F",
"E+	c #C2C0BC",
"F+	c #7C6D68",
"G+	c #BFBCA1",
"H+	c #D1CEB7",
"I+	c #DDDAC3",
"J+	c #D3CFAC",
"K+	c #C6C18D",
"L+	c #BAB673",
"M+	c #98953F",
"N+	c #96931D",
"O+	c #463F32",
"P+	c #493E38",
"Q+	c #382F2F",
"R+	c #695D2B",
"S+	c #4B402E",
"T+	c #987B59",
"U+	c #DCD4B2",
"V+	c #E3D2A6",
"W+	c #6A451F",
"X+	c #735C2B",
"Y+	c #FFDC55",
"Z+	c #6A4022",
"`+	c #D1B06C",
" @	c #EEDAB1",
".@	c #F6E5B5",
"+@	c #43322D",
"@@	c #7B6E58",
"#@	c #5C4E3C",
"$@	c #8D815D",
"%@	c #BFBC9E",
"&@	c #BBB79D",
"*@	c #6A5B57",
"=@	c #C2BFA4",
"-@	c #E7E4D5",
";@	c #E9E7D5",
">@	c #EAE8CF",
",@	c #9F9B7B",
"'@	c #999474",
")@	c #D2CE98",
"!@	c #AFAB65",
"~@	c #949144",
"{@	c #93903C",
"]@	c #302931",
"^@	c #3E3434",
"/@	c #403837",
"(@	c #3D372F",
"_@	c #482F26",
":@	c #F7EBBE",
"<@	c #E7D5A7",
"[@	c #9B7B50",
"}@	c #664C24",
"|@	c #C6A33A",
"1@	c #734626",
"2@	c #EBCF83",
"3@	c #F5DCA3",
"4@	c #E2C691",
"5@	c #4E483F",
"6@	c #947936",
"7@	c #5A4D4F",
"8@	c #908662",
"9@	c #A8A489",
"0@	c #B0AB87",
"a@	c #9C958E",
"b@	c #DBD7BF",
"c@	c #F3F0E6",
"d@	c #C9C6BB",
"e@	c #302729",
"f@	c #43383A",
"g@	c #3E3436",
"h@	c #251C21",
"i@	c #A3985D",
"j@	c #B0A858",
"k@	c #7A7526",
"l@	c #565220",
"m@	c #372E2F",
"n@	c #3D3433",
"o@	c #807034",
"p@	c #1F1820",
"q@	c #F9DAA0",
"r@	c #F9E4AD",
"s@	c #C4AD78",
"t@	c #503219",
"u@	c #A68F3F",
"v@	c #A88031",
"w@	c #90652D",
"x@	c #DBC085",
"y@	c #DAC293",
"z@	c #A38E6A",
"A@	c #342E34",
"B@	c #907529",
"C@	c #392F34",
"D@	c #AFA378",
"E@	c #A29E88",
"F@	c #F1EEDB",
"G@	c #FBFAF3",
"H@	c #736A64",
"I@	c #F6F2E7",
"J@	c #665E59",
"K@	c #645A53",
"L@	c #6A6055",
"M@	c #6B6253",
"N@	c #6A6150",
"O@	c #60564A",
"P@	c #D9C968",
"Q@	c #ADA64E",
"R@	c #5E5908",
"S@	c #231C23",
"T@	c #2F2828",
"U@	c #413724",
"V@	c #312A1F",
"W@	c #DFC997",
"X@	c #E1CFA0",
"Y@	c #E9D895",
"Z@	c #472415",
"`@	c #9C853A",
" #	c #A1782F",
".#	c #A07532",
"+#	c #DDBE7B",
"@#	c #E3C58A",
"##	c #9E8A5E",
"$#	c #2D232B",
"%#	c #2A232B",
"&#	c #382E2D",
"*#	c #766D30",
"=#	c #8B8557",
"-#	c #A39F47",
";#	c #A09C4A",
">#	c #625C38",
",#	c #D7CE9A",
"'#	c #DFD3A9",
")#	c #DFD19A",
"!#	c #E5D594",
"~#	c #E4D386",
"{#	c #E6D179",
"]#	c #E5CE6E",
"^#	c #D6BF5C",
"/#	c #C4B551",
"(#	c #9E9818",
"_#	c #090615",
":#	c #231C20",
"<#	c #61583B",
"[#	c #26221E",
"}#	c #BFAD87",
"|#	c #E6E2CB",
"1#	c #D5C789",
"2#	c #502E17",
"3#	c #927B37",
"4#	c #A37930",
"5#	c #A47836",
"6#	c #DDBD7C",
"7#	c #DFC38E",
"8#	c #9A8858",
"9#	c #271F26",
"0#	c #2D2429",
"a#	c #322A29",
"b#	c #5F5624",
"c#	c #66602C",
"d#	c #85801F",
"e#	c #5F5C01",
"f#	c #6D681F",
"g#	c #706714",
"h#	c #74670D",
"i#	c #847416",
"j#	c #907E1B",
"k#	c #9C851F",
"l#	c #A78D22",
"m#	c #AA8F23",
"n#	c #A58A20",
"o#	c #9E821E",
"p#	c #A1872F",
"q#	c #06050E",
"r#	c #1D161A",
"s#	c #65582D",
"t#	c #39371E",
"u#	c #B0A07A",
"v#	c #D3CFB5",
"w#	c #C7BA7E",
"x#	c #533019",
"y#	c #907A35",
"z#	c #AC8033",
"A#	c #9B6C38",
"B#	c #D4B46E",
"C#	c #DCBE87",
"D#	c #A18B60",
"E#	c #292722",
"F#	c #50453E",
"G#	c #5B4D35",
"H#	c #6D650B",
"I#	c #4E4B07",
"J#	c #857F1D",
"K#	c #545000",
"L#	c #6D6431",
"M#	c #7F6D0D",
"N#	c #383011",
"O#	c #201B09",
"P#	c #1E1907",
"Q#	c #1E1807",
"R#	c #1B1605",
"S#	c #231B0C",
"T#	c #272010",
"U#	c #1D170F",
"V#	c #110D0F",
"W#	c #100C0F",
"X#	c #282319",
"Y#	c #232314",
"Z#	c #D6BF84",
"`#	c #DDC793",
" $	c #E7D07B",
".$	c #472315",
"+$	c #917B36",
"@$	c #CB9F41",
"#$	c #854C29",
"$$	c #E7C771",
"%$	c #DEB97B",
"&$	c #E0C280",
"*$	c #181718",
"=$	c #1D170D",
"-$	c #938114",
";$	c #888015",
">$	c #887D3B",
",$	c #7A7148",
"'$	c #756A15",
")$	c #7A712C",
"!$	c #867A00",
"~$	c #807B14",
"{$	c #06040E",
"]$	c #000002",
"^$	c #000000",
"/$	c #0B0A14",
"($	c #66551A",
"_$	c #130F0D",
":$	c #1D160B",
"<$	c #221B10",
"[$	c #2C2215",
"}$	c #1F1D17",
"|$	c #4D4423",
"1$	c #0A0A09",
"2$	c #F9D88D",
"3$	c #E0BE7D",
"4$	c #C3A960",
"5$	c #4D2C19",
"6$	c #96823B",
"7$	c #FFED6B",
"8$	c #7E4222",
"9$	c #D5B062",
"0$	c #C59E65",
"a$	c #CAA161",
"b$	c #504D31",
"c$	c #17111E",
"d$	c #7A6605",
"e$	c #9B841C",
"f$	c #7A6E2B",
"g$	c #595225",
"h$	c #989432",
"i$	c #5F5317",
"j$	c #946D0A",
"k$	c #A17807",
"l$	c #AB920A",
"m$	c #746918",
"n$	c #766A1F",
"o$	c #A2860F",
"p$	c #9D7207",
"q$	c #806202",
"r$	c #281E0C",
"s$	c #020203",
"t$	c #030404",
"u$	c #090806",
"v$	c #524A28",
"w$	c #51472D",
"x$	c #C2A26D",
"y$	c #D2AF72",
"z$	c #9A7D43",
"A$	c #604524",
"B$	c #A37138",
"C$	c #C59D4E",
"D$	c #AE8859",
"E$	c #CFA672",
"F$	c #77623C",
"G$	c #211D1D",
"H$	c #504721",
"I$	c #766C01",
"J$	c #887C26",
"K$	c #8F8210",
"L$	c #413723",
"M$	c #08050D",
"N$	c #745F00",
"O$	c #614900",
"P$	c #94690C",
"Q$	c #986A0A",
"R$	c #996B09",
"S$	c #896008",
"T$	c #503A00",
"U$	c #684F08",
"V$	c #151003",
"W$	c #010102",
"X$	c #13130E",
"Y$	c #29261A",
"Z$	c #16170E",
"`$	c #97794B",
" %	c #C8A372",
".%	c #D1AB74",
"+%	c #765C27",
"@%	c #65502C",
"#%	c #BB954A",
"$%	c #8A572B",
"%%	c #CCAA63",
"&%	c #A6804D",
"*%	c #BA8E54",
"=%	c #181311",
"-%	c #000007",
";%	c #736507",
">%	c #735C00",
",%	c #97862A",
"'%	c #403305",
")%	c #7C6612",
"!%	c #000008",
"~%	c #655819",
"{%	c #78610A",
"]%	c #705806",
"^%	c #6C5104",
"/%	c #6C5006",
"(%	c #58450C",
"_%	c #2F2925",
":%	c #0B0909",
"<%	c #48432D",
"[%	c #2F2C1E",
"}%	c #1C150E",
"|%	c #C79F66",
"1%	c #BB945B",
"2%	c #AD8E53",
"3%	c #522D18",
"4%	c #7E6E3E",
"5%	c #FFE566",
"6%	c #673821",
"7%	c #A27E40",
"8%	c #966E43",
"9%	c #A17A4D",
"0%	c #6D4B2C",
"a%	c #020307",
"b%	c #312906",
"c%	c #1C1601",
"d%	c #756113",
"e%	c #534000",
"f%	c #6E5A08",
"g%	c #514514",
"h%	c #141111",
"i%	c #040313",
"j%	c #030410",
"k%	c #0E0F1D",
"l%	c #2F281F",
"m%	c #776635",
"n%	c #0A0600",
"o%	c #454026",
"p%	c #352F1E",
"q%	c #070608",
"r%	c #9A7444",
"s%	c #A88151",
"t%	c #A37E54",
"u%	c #806030",
"v%	c #63492C",
"w%	c #A88E55",
"x%	c #653E1E",
"y%	c #A37F4B",
"z%	c #AF8759",
"A%	c #B78C5E",
"B%	c #3F2517",
"C%	c #202118",
"D%	c #C4B876",
"E%	c #6C6239",
"F%	c #403B1C",
"G%	c #695B0F",
"H%	c #6F610B",
"I%	c #826F07",
"J%	c #816606",
"K%	c #806009",
"L%	c #736105",
"M%	c #4E460F",
"N%	c #373121",
"O%	c #423615",
"P%	c #030309",
"Q%	c #6B4D2E",
"R%	c #A07A51",
"S%	c #936C41",
"T%	c #95713E",
"U%	c #61371A",
"V%	c #8E794C",
"W%	c #725131",
"X%	c #996B36",
"Y%	c #91724C",
"Z%	c #B99264",
"`%	c #85603C",
" &	c #4B301E",
".&	c #131109",
"+&	c #4B4221",
"@&	c #4C3F1B",
"#&	c #030408",
"$&	c #000003",
"%&	c #000005",
"&&	c #08060A",
"*&	c #49432B",
"=&	c #524828",
"-&	c #352E1E",
";&	c #0E0B0D",
">&	c #6A4B2E",
",&	c #9E754A",
"'&	c #9F764D",
")&	c #9F794A",
"!&	c #784B1E",
"~&	c #735631",
"{&	c #E0CF83",
"]&	c #8E5E2E",
"^&	c #8E5E31",
"/&	c #7E5836",
"(&	c #7B5433",
"_&	c #7B5434",
":&	c #755532",
"<&	c #262813",
"[&	c #222010",
"}&	c #312B1C",
"|&	c #4B4830",
"1&	c #94874E",
"2&	c #4A4326",
"3&	c #514C35",
"4&	c #B6A86A",
"5&	c #2D281D",
"6&	c #67592E",
"7&	c #1A1614",
"8&	c #2B201B",
"9&	c #805A37",
"0&	c #87603E",
"a&	c #875E3A",
"b&	c #7C5632",
"c&	c #764F20",
"d&	c #5B371D",
"e&	c #765A19",
"f&	c #B1964A",
"g&	c #6F451F",
"h&	c #99662D",
"i&	c #76512F",
"j&	c #765336",
"k&	c #725134",
"l&	c #805833",
"m&	c #6E5830",
"n&	c #524E2B",
"o&	c #07070B",
"p&	c #161716",
"q&	c #151215",
"r&	c #393428",
"s&	c #1B1919",
"t&	c #1C161C",
"u&	c #3C2C23",
"v&	c #67462D",
"w&	c #89603C",
"x&	c #886543",
"y&	c #714E31",
"z&	c #7E5730",
"A&	c #7A5123",
"B&	c #502E19",
"C&	c #6A4B17",
"D&	c #78581D",
"E&	c #966431",
"F&	c #9B6C30",
"G&	c #81602B",
"H&	c #6A432D",
"I&	c #7D5738",
"J&	c #755134",
"K&	c #764E33",
"L&	c #886037",
"M&	c #6E492B",
"N&	c #63422A",
"O&	c #63422B",
"P&	c #6B4529",
"Q&	c #835937",
"R&	c #865E3E",
"S&	c #7E5D3F",
"T&	c #987D58",
"U&	c #7A563C",
"V&	c #7C5628",
"W&	c #784C1E",
"X&	c #553119",
"Y&	c #997123",
"Z&	c #745214",
"`&	c #794E25",
" *	c #88562D",
".*	c #966E29",
"+*	c #98763A",
"@*	c #754D33",
"#*	c #745337",
"$*	c #836041",
"%*	c #765337",
"&*	c #6F4C33",
"**	c #704A2D",
"=*	c #846444",
"-*	c #795638",
";*	c #71482C",
">*	c #764E32",
",*	c #79552A",
"'*	c #66471C",
")*	c #3B1E12",
"!*	c #6E4F24",
"~*	c #AB8C42",
"{*	c #A7823A",
"]*	c #7F5832",
"^*	c #744322",
"/*	c #AA8848",
"(*	c #8C6B3A",
"_*	c #856635",
":*	c #7E5C33",
"<*	c #805B36",
"[*	c #815B36",
"}*	c #7B5831",
"|*	c #7C5B34",
"1*	c #765530",
"2*	c #7D5F35",
"3*	c #5D3725",
"4*	c #5E421D",
"5*	c #99752E",
"6*	c #956F29",
"7*	c #96794C",
"8*	c #704B29",
"9*	c #5A2D16",
"0*	c #683F23",
"a*	c #6A4323",
"b*	c #643F22",
"c*	c #583622",
"d*	c #4E2C1D",
"e*	c #6C4D25",
"f*	c #896626",
"g*	c #A27824",
"h*	c #C2AA5D",
"i*	c #8D6D2D",
"j*	c #B39555",
"k*	c #B99140",
"l*	c #C39A3A",
"m*	c #E4B946",
"                        . + @ # $ % & *                         ",
"                  = - ; > , ' ) ! ~ { ] ^ /                     ",
"                ( _ : < [ } | 1 2 3 4 5 6 7 8 9                 ",
"            0 a b c d e f g h i j k l m n o p q r s             ",
"          t u v w x y z A B C D E F G H I J K L M N O           ",
"        P Q R S T U V W X Y Z `  ...+.@.#.$.%.&.*.=.-.;.        ",
"      >.,.'.).!.~.{.].^./.(._.:.<.[.}.|.1.2.3.4.5.6.7.8.9.      ",
"      0.a.b.c.d.e.f.g.h.i.j.k.l.m.n.o.p.q.r.s.t.u.v.w.x.y.      ",
"    z.A.B.C.D.E.F.G.H.I.J.K.L.M.N.O.P.Q.R.S.T.U.V.W.X.Y.Z.`.    ",
"   +.+++@+#+$+%+&+*+=+-+;+>+,+'+)+!+~+{+]+^+/+(+_+:+<+[+}+|+    ",
"  1+2+3+4+5+6+7+8+9+0+a+b+c+d+e+f+g+h+i+j+k+l+m+n+o+p+q+r+s+t+  ",
"  u+v+w+x+y+z+A+B+C+D+E+F+G+H+I+J+K+L+M+N+O+P+Q+R+S+T+U+V+W+X+  ",
"Y+Z+`+ @.@+@@@#@$@%@&@*@=@-@;@>@,@'@)@!@~@{@]@^@/@(@_@:@<@[@}@  ",
"|@1@2@3@4@5@6@7@8@9@0@a@b@c@d@e@f@g@h@i@j@k@l@m@n@o@p@q@r@s@t@u@",
"v@w@x@y@z@A@B@C@D@E@F@G@H@I@J@K@L@M@N@O@P@Q@R@S@T@U@V@W@X@Y@Z@`@",
" #.#+#@###$#%#&#*#=#-#;#>#,#'#)#!#~#{#]#^#/#(#_#:#<#[#}#|#1#2#3#",
"4#5#6#7#8#9#0#a#b#c#d#e#f#g#h#i#j#k#l#m#n#o#p#q#r#s#t#u#v#w#x#y#",
"z#A#B#C#D#E#F#G#H#I#J#K#L#M#N#O#P#Q#Q#R#S#T#U#V#W#X#Y#Z#`# $.$+$",
"@$#$$$%$&$*$=$-$;$>$,$'$)$!$~${$]$^$/$($_$:$<$[$}$|$1$2$3$4$5$6$",
"7$8$9$0$a$b$c$d$e$f$g$h$i$j$k$l$m$n$o$p$q$r$s$t$u$v$w$x$y$z$A$  ",
"  B$C$D$E$F$G$H$I$J$K$L$M$N$O$P$Q$R$S$T$U$V$W$X$Y$Z$`$ %.%+%@%  ",
"  #%$%%%&%*%=%-%;%>%,%'%)%!%~%{%]%^%/%(%^$_%:%<%[%}%|%1%2%3%4%  ",
"  5%6%7%8%9%0%^$a%b%c%d%e%f%g%h%i%j%k%l%m%n%o%p%q%r%s%t%u%v%    ",
"    w%x%y%z%A%B%C%D%E%^$F%G%H%I%J%K%L%M%]$N%O%P%Q%R%S%T%U%V%    ",
"      W%X%Y%Z%`% &^$.&+&@&#&^$^$$&%&&&*&=&-&;&>&,&'&)&!&~&      ",
"      {&]&^&/&(&_&:&<&[&}&|&1&2&3&4&5&6&7&8&9&0&a&b&c&d&e&      ",
"        f&g&h&i&j&k&l&m&n&o&p&q&r&s&t&u&v&w&x&y&z&A&B&C&        ",
"          D&E&F&G&H&I&J&K&L&M&N&O&P&Q&R&S&T&U&V&W&X&Y&          ",
"            Z&`& *.*+*@*#*$*%*&***=*-*;*>*,*'*)*!*~*            ",
"                {*]*^*/*(*_*:*<*[*}*|*1*2*3*4*5*                ",
"                    6*7*8*9*0*a*b*c*d*e*f*g*                    ",
"                          h*i*j*k*l*m*                          "};
